<svg width="20" height="16" viewBox="0 0 20 16" fill="none" xmlns="http://www.w3.org/2000/svg">
<path d="M1.27183 7.30045L7.78418 0.787939C7.97008 0.60204 8.21785 0.5 8.48204 0.5C8.74652 0.5 8.99414 0.602186 9.18004 0.787939L9.77132 1.37936C9.95707 1.56497 10.0594 1.81288 10.0594 2.07722C10.0594 2.34141 9.95707 2.59768 9.77132 2.78328L5.9721 6.59086H18.0424C18.5866 6.59086 19.0166 7.0169 19.0166 7.56126V8.39737C19.0166 8.94173 18.5866 9.41073 18.0424 9.41073H5.929L9.77117 13.2396C9.95692 13.4255 10.0593 13.6666 10.0593 13.931C10.0593 14.195 9.95692 14.4397 9.77117 14.6255L9.1799 15.215C8.994 15.4009 8.74638 15.5022 8.48189 15.5022C8.2177 15.5022 7.96994 15.3996 7.78404 15.2137L1.27168 8.70129C1.08534 8.51481 0.982863 8.26586 0.983596 8.00124C0.98301 7.73573 1.08534 7.48664 1.27183 7.30045Z" fill="#696976"/>
</svg>